<?xml version="1.0" encoding="UTF-8"?>
<!DOCTYPE svg PUBLIC "-//W3C//DTD SVG 1.1//EN" "http://www.w3.org/Graphics/SVG/1.1/DTD/svg11.dtd">
<!-- Creator: CorelDRAW -->
<svg xmlns="http://www.w3.org/2000/svg" xml:space="preserve" width="229.996mm" height="28.9108mm" version="1.1" style="shape-rendering:geometricPrecision; text-rendering:geometricPrecision; image-rendering:optimizeQuality; fill-rule:evenodd; clip-rule:evenodd"
viewBox="0 0 36577.35 4597.82"
 xmlns:xlink="http://www.w3.org/1999/xlink"
 xmlns:xodm="http://www.corel.com/coreldraw/odm/2003">
 <defs>
  <style type="text/css">
   <![CDATA[
    .fil0 {fill:#F17F21}
   ]]>
  </style>
 </defs>
 <g id="Capa_x0020_1">
  <metadata id="CorelCorpID_0Corel-Layer"/>
  <g id="_2419883827760">
   <path class="fil0" d="M31733.21 4228.35l-31589.54 0c-19.1,82.05 -118.5,261.37 -143.67,369.47l32615.82 0c7.06,-84.88 37.15,-109.45 67.46,-178.85l1123.06 -2612.69 2339.96 0c30.11,-56.89 55.38,-129.82 78.99,-187.85 33.17,-81.54 62.47,-102 64.7,-202.13l-3284.16 0c-86.1,0 -125.08,169.96 -185.31,307.32l-928.79 2150.1c-54.76,127.77 -98.06,240.4 -158.51,354.63z"/>
   <path class="fil0" d="M15415.03 3899.94l1354.72 0 594.68 -1375.81c63.79,-145.47 343.69,-770.94 349.51,-841.01 61.53,45.09 88.93,149.54 122.6,226.35l328.98 779.43 -697.88 0c-5.58,67.06 -60.08,174.03 -89.12,239.3 -29.64,66.6 -89.89,184.37 -95.61,253.31l1108.39 0 307.89 718.42 1703.66 0c-11.47,-137.72 -248.51,-551.66 -287.36,-718.42l472.09 0 -205.27 -492.61 -492.61 0 -882.63 -2073.13 -2175.75 0c-113.53,214.57 -406.79,930.13 -533.34,1211.38 -62.64,139.23 -113.63,272.2 -178.07,417.18 -36.13,81.31 -696.79,1558.3 -704.89,1655.6z"/>
   <path class="fil0" d="M13157.18 3161.01l-2401.55 0 -290.29 677.9c-8,33.68 -28.18,61.04 43.97,61.04l4125.73 0c448.75,0 674.91,-459.31 383.88,-814.93 -70.44,-86.05 -122.06,-150.37 -190.16,-240.89l-946.8 -1208.43c-37.91,-46.53 -58.92,-80.07 -97.2,-128.6 -51.97,-65.9 -53.74,-55.95 -93.91,-131.87l2381 0c58.19,-109.96 117.38,-245.04 167.18,-366.51 43.37,-105.84 135.18,-281.05 161.25,-392.94 -504.12,0 -4197.45,-29.17 -4355.48,16.54 -251.05,72.62 -450.96,382.3 -312.07,668.95 65.67,135.51 824.75,1074.74 943.36,1232.41l481.1 627.33z"/>
   <path class="fil0" d="M8703.03 615.78l-821.05 0c-6.46,77.69 -93.58,246.44 -126,325.58 -222.3,542.4 -397.24,433.88 598.1,433.88 -24.51,105.22 -204.22,497.76 -259.82,622.8 -65.84,148.06 -800.07,1812.31 -807.53,1901.91l1970.5 0c46.5,-87.91 103.72,-220.18 140.83,-310.74 121.6,-296.68 916.68,-2083.63 947.05,-2213.97l779.99 0c29.26,-55.31 56.03,-127.12 81.54,-185.29l246.87 -574.16 -759.45 0c22.25,-95.53 82.9,-224.94 123.16,-307.89 40.25,-82.95 100.91,-212.37 123.16,-307.89l-1991.02 0c-24.21,103.85 -82.19,216.33 -122.6,308.46 -36.4,83.05 -103.71,221.44 -123.71,307.32z"/>
   <path class="fil0" d="M4741.51 615.78l-821.05 0c-27.34,117.35 -215.54,518.85 -275.37,651.9 -62.99,140.05 9.65,107.75 275.37,107.57 157.36,-0.11 314.75,-0.02 472.11,-0.02 -39.22,168.35 -1029.45,2341.45 -1067.36,2504.18l1991.02 0c20.02,-85.88 87.31,-224.27 123.73,-307.32l943.63 -2196.86 779.99 0 239.44 -561.06c34.32,-71.42 55.77,-135.64 88.98,-198.4l-759.47 0c5.88,-70.64 93.19,-241.43 122.58,-308.46 36.43,-83.06 103.72,-221.42 123.73,-307.32l-1991.02 0c-20.01,85.88 -87.31,224.27 -123.73,307.32 -40.39,92.13 -98.39,204.61 -122.58,308.46z"/>
   <path class="fil0" d="M307.89 3879.41l1888.39 0c61.83,-128.88 109.8,-265.38 171.22,-403.5 166.46,-374.37 1216.81,-2767.11 1224.55,-2860.13l-1888.39 0c-47.73,204.85 -1360.41,3111.88 -1395.77,3263.63z"/>
   <path class="fil0" d="M28736.41 3899.94l1026.3 0 606.99 -1404.56c102.7,-245.3 195.64,-460.88 303.17,-702.62l224.48 -514.46c26.65,-62.1 63.04,-133.03 76.4,-190.43l5439.4 0c48.24,-72.04 142.27,-275.37 164.2,-369.47 -1013.94,0 -1961.95,-20.53 -2976.27,-20.53l-3427.85 0c-83.83,0 -149.03,220.22 -212.26,362.47l-1135.43 2620.81c-28.42,63.85 -75.4,159.85 -89.12,218.78z"/>
   <path class="fil0" d="M25431.73 3899.94l389.64 -903.49c39.82,-88.5 390.33,-900.66 390.33,-923.32 0,-100.53 -209.53,-61.58 -410.52,-61.58 -164.2,0 -328.41,0 -492.63,0 -7.57,91.14 -468.39,1106.47 -542.48,1284.32 -39.66,95.2 -169.01,356.73 -175.92,439.86l-328.41 0c6.57,-78.88 128.74,-327.63 164.78,-409.94l533.1 -1252.65c0,-47.3 -14.28,-61.58 -61.58,-61.58 -937.65,0 -811.82,-68.08 -916.69,171.18 -35.05,79.98 -60.07,138.23 -91.92,215.97l-367.2 843.84c-324.35,740.82 -328.3,658.01 62.13,657.4l1847.36 0z"/>
   <path class="fil0" d="M22003.88 3715.21l-369.47 0c34.3,-147.28 288.52,-629.27 328.41,-800.52 60.5,0 307.89,-40.46 307.89,143.69 0,70.68 -235.83,523.75 -266.83,656.83zm20.53 -903.14l150.69 -362.47c29.52,-66.35 53.36,-120.37 80.55,-186.28 72.55,-175.81 28.86,-149.14 343.48,-149.14 140.48,0 -36.34,281.6 -111.42,463.3 -106.39,257.45 -102.18,234.59 -463.3,234.59zm-1169.99 1087.88l1908.91 0c215.06,0 286.5,-284.78 368.91,-472.67 32.3,-73.66 109.88,-214.2 92.4,-295.25 -36.04,-167.11 -150.13,-137.49 -235.51,-196.81 301.04,0 356.03,14.49 489.7,-310.8 111.72,-271.85 330.63,-612.87 167.13,-612.87l-2052.6 0c-69.45,0 -73.86,78.02 -131.97,216.99l-633.47 1460.46c-28.8,64.57 -101.96,210.94 26.5,210.94z"/>
   <path class="fil0" d="M26458.03 2278.38c0,137.9 768.39,1050.6 862.08,1190.52l-1395.77 0c-33.89,64.06 -61.44,138.82 -95.74,212.15 -27.21,58.19 -76.43,164.95 -89,218.9 177.56,0 2499.8,25.32 2608.41,-18.93 98.46,-40.09 162.61,-150.29 162.61,-227.39 0,-101.91 -134.93,-252.66 -191.19,-321.97l-691.44 -889.07 1416.3 0c37.66,-71.18 58.14,-133.88 95.77,-212.12 32.13,-66.81 72.44,-148.05 88.96,-218.93 -180.87,0 -2513.15,-28.82 -2625.46,22.39 -72.79,33.19 -145.55,136.17 -145.55,244.44z"/>
   <path class="fil0" d="M30316.91 3899.94l1026.3 0c9.92,-119.13 1036.4,-2358.33 1046.83,-2483.65l-1005.78 0c-47.71,90.16 -84.57,198.38 -130.15,300.88l-805.22 1863.16c-43.86,105.3 -107.91,216.35 -131.97,319.61z"/>
  </g>
 </g>
</svg>
